<svg width="33" height="32" viewBox="0 0 33 32" fill="none" xmlns="http://www.w3.org/2000/svg">
<g clip-path="url(#clip0_12_2071)">
<path d="M7.5 11.6396L14.5919 14.7084C14.5919 14.7084 15.5613 14.2802 16.5052 13.8758C16.5052 13.8758 16.6838 13.7806 16.6838 13.5903C16.6838 13.5903 16.6838 13.3762 16.4542 13.2811C16.4542 13.2811 13.2654 11.9013 10.0766 10.5454L15.7909 8.09515L16.2756 8L16.7348 8.09515L25.3064 11.7824C25.3064 11.7824 26.1737 12.163 26.1737 12.6626C26.1737 12.6626 26.1737 13.1621 25.3064 13.5189L18.5971 16.3974L25.3064 19.2758C25.3064 19.2758 26.1737 19.6326 26.1737 20.1797C26.1737 20.1797 26.1737 20.6555 25.3064 21.0599L16.7348 24.6996C16.7348 24.6996 16.5562 24.8423 16.2756 24.8423L15.7909 24.6996L10.0766 22.2731L16.4542 19.5612L16.6838 19.252C16.6838 19.252 16.6838 19.1093 16.5052 18.9427L14.5919 18.1339L7.5 21.2027V17.7295L10.5868 16.3974L7.5 15.1128V11.6396Z" fill="#020617"/>
</g>
<defs>
<clipPath id="clip0_12_2071">
<rect width="32" height="32" fill="white" transform="translate(0.5)"/>
</clipPath>
</defs>
</svg>
