<svg width="33" height="32" viewBox="0 0 33 32" fill="none" xmlns="http://www.w3.org/2000/svg">
<g clip-path="url(#clip0_12_2056)">
<path fill-rule="evenodd" clip-rule="evenodd" d="M0.5 0H32.5V32H0.5V0Z" fill="#F3F9FF"/>
<path fill-rule="evenodd" clip-rule="evenodd" d="M15.5998 23.4912L8.25681 24.2808L9.70644 25.695H20.1019L16.2479 23.4201L15.5998 23.4912ZM15.5998 17.6332L25.7125 14.934C25.7125 14.934 27.1859 14.828 28.6473 11.516L15.5998 15.7946L5.45158 19.1064C5.45158 19.1064 4.57934 19.3893 4.23755 19.625C4.23755 19.625 4.00179 19.7666 4.00179 20.0964C4.00179 20.0964 4.02534 20.344 4.20216 20.521L4.63828 20.9571L10.1778 19.519C10.1778 19.519 9.83601 19.071 10.5196 18.9768L15.5998 17.6332ZM15.5998 22.9135C15.6115 23.0313 15.7058 23.1377 15.7058 23.1377L15.5998 23.1492L7.90318 24.0215L6.44154 22.6543L15.5996 21.0159L23.4256 19.625C22.1411 22.1476 19.5479 22.1476 19.5479 22.1476L16.3186 22.56C15.7764 22.5718 15.6233 22.7131 15.5996 22.8548L15.5998 22.9135ZM15.5998 18.5524L26.2665 15.8535C25.0054 18.7058 22.4713 18.8 22.4713 18.8L15.5998 20.1909L13.3485 20.6504C12.2641 20.6741 12.7356 21.2281 12.7356 21.2281L6.17054 22.3479L4.94482 21.2635L15.5998 18.5524ZM15.5998 12.789L30.5097 6.69531C30.5097 6.69531 30.0026 8.19234 29.6844 8.9584C29.6844 8.9584 29.2955 10.1724 27.7399 10.6556L15.5998 14.946L5.0744 18.6469C5.0744 18.6469 3.7191 19.1303 3.49504 19.6961C3.49504 19.6961 3.1768 20.3441 4.03734 21.0751L9.1172 25.6953H7.12542L3.03553 21.6879C3.03553 21.6879 2.1162 20.9335 2.04541 19.8609V19.637C2.05726 19.5664 2.05726 19.4958 2.0808 19.4131C2.0808 19.4131 2.25762 18.2343 4.02549 17.5155L15.5998 12.789Z" fill="#020617"/>
</g>
<defs>
<clipPath id="clip0_12_2056">
<rect width="32" height="32" fill="white" transform="translate(0.5)"/>
</clipPath>
</defs>
</svg>
