<svg width="36" height="32" viewBox="0 0 36 32" fill="none" xmlns="http://www.w3.org/2000/svg">
<path fill-rule="evenodd" clip-rule="evenodd" d="M30.2162 13.0419C29.893 12.4064 29.4674 11.7972 28.9379 11.226C27.7479 9.94165 26.069 8.87293 24.0822 8.13584C22.079 7.39304 19.7942 7 17.4724 7C15.1505 7 12.8657 7.39304 10.8636 8.13584C8.87573 8.87302 7.19676 9.94173 6.00683 11.226C5.47767 11.7971 5.05064 12.4071 4.72754 13.043C7.31414 12.4175 11.7387 11.5917 15.8469 11.5043C16.2432 11.4958 16.516 11.6227 16.6957 11.8504C16.9145 12.1277 16.8981 13.1161 16.8927 13.5583L16.7759 24.9874C17.0073 24.9951 17.2397 25 17.4724 25C17.707 25 17.9407 24.9962 18.1721 24.9885L18.0553 13.5582C18.0492 13.1161 18.0323 12.1276 18.2519 11.8504C18.432 11.6227 18.7039 11.4958 19.1001 11.5043C23.2066 11.5909 27.6301 12.4169 30.2162 13.0419Z" fill="#020617"/>
<path fill-rule="evenodd" clip-rule="evenodd" d="M30.7686 14.5281C26.9828 13.6722 24.4547 13.514 21.9601 13.3756C19.7857 13.2547 19.7574 14.0311 19.9744 15.5149C19.9886 15.6055 20.0061 15.7196 20.0268 15.8498C20.7562 20.1696 21.6644 23.8871 21.8204 24.518C27.1214 23.3063 30.9444 19.9467 30.9444 16.0001C30.9444 15.5032 30.8843 15.0108 30.7686 14.5281Z" fill="#020617"/>
<path fill-rule="evenodd" clip-rule="evenodd" d="M14.9725 15.5149C15.1898 14.0312 15.162 13.2547 12.9878 13.3756C10.4924 13.514 7.96368 13.6722 4.1765 14.5286C4.06082 15.0113 4 15.5031 4 16.0001C4 17.7058 4.69391 19.3563 6.00693 20.7744C7.19686 22.0587 8.87583 23.1274 10.8637 23.865C11.5831 24.1314 12.3424 24.3497 13.1245 24.5243C13.2712 23.9332 14.2003 20.1385 14.9376 15.7414C14.9512 15.6571 14.9638 15.5793 14.9725 15.5149Z" fill="#020617"/>
</svg>
