<svg width="33" height="32" viewBox="0 0 33 32" fill="none" xmlns="http://www.w3.org/2000/svg">
<g clip-path="url(#clip0_12_2063)">
<path fill-rule="evenodd" clip-rule="evenodd" d="M0.5 0H32.5V32H0.5V0Z" fill="white"/>
<path d="M16.3373 5.83875C10.8177 5.83875 6.33887 10.3173 6.33887 15.8371C6.33887 21.357 10.8177 25.8387 16.3373 25.8387C21.8571 25.8387 26.3385 21.357 26.3385 15.8371C26.3385 10.3173 21.8568 5.83875 16.3373 5.83875ZM16.3402 6.07087C16.398 6.07087 16.4582 6.08929 16.505 6.12292C16.5568 6.15977 16.5943 6.21085 16.615 6.26969V6.2726L16.6179 6.27583L16.9512 7.48591C21.2871 7.80047 24.7127 11.4216 24.7127 15.8371C24.7127 17.1403 24.414 18.3756 23.8819 19.4764L24.7405 20.3415L24.7434 20.3444L24.7467 20.3477C24.789 20.3971 24.8113 20.4544 24.8168 20.5125C24.8226 20.5717 24.811 20.6335 24.7803 20.6865C24.7502 20.7391 24.7043 20.7808 24.649 20.8058C24.5937 20.8313 24.5317 20.8388 24.4719 20.8271H24.4625L23.2831 20.5187C21.7769 22.7468 19.2262 24.2129 16.3376 24.2129C13.4487 24.2129 10.9002 22.7468 9.3946 20.5187L8.21847 20.8303H8.2091C8.14315 20.8423 8.08269 20.829 8.03194 20.8058C7.97568 20.7799 7.9301 20.7382 7.90068 20.6865C7.87114 20.6347 7.85838 20.5751 7.86415 20.5158C7.86932 20.4576 7.89163 20.4004 7.9343 20.3506L7.93754 20.3477L7.94077 20.3444L8.79619 19.4796C8.26309 18.3782 7.96501 17.1419 7.96501 15.8371C7.96501 11.4194 11.3912 7.79723 15.7298 7.48591L16.0566 6.27874L16.0595 6.27228V6.26937C16.0802 6.21029 16.1186 6.15903 16.1695 6.12259C16.2222 6.08509 16.282 6.07087 16.3402 6.07087ZM16.3402 6.19307C16.3046 6.19307 16.2681 6.20309 16.2393 6.22346C16.2097 6.24476 16.1873 6.27467 16.1753 6.30913L15.4479 8.99826C15.4298 9.05031 15.4217 9.11108 15.4388 9.16346C15.4563 9.21583 15.4883 9.26044 15.5336 9.29148C15.6642 9.38168 15.7133 9.55141 15.7751 9.71628C15.8365 9.88084 15.8465 10.0228 15.8025 10.1931C15.7589 10.3635 15.658 10.5184 15.5245 10.6328C15.2846 10.8384 15.0719 11.0867 14.9377 11.3783C14.8032 11.6702 14.7577 11.9825 14.7577 12.2984V13.0746L10.9991 10.905L10.5833 11.6198L14.7577 14.0277V14.9015L14.0057 15.3354L9.83137 12.9243L9.41562 13.6423L13.1742 15.8148L12.5021 16.2031C12.2286 16.3609 11.9819 16.5581 11.796 16.8203C11.6101 17.0824 11.5025 17.3928 11.4446 17.7035C11.4123 17.8761 11.3288 18.0384 11.2031 18.1619C11.0776 18.2848 10.949 18.3433 10.7754 18.3724C10.6021 18.4011 10.4327 18.4496 10.2895 18.3814C10.24 18.3578 10.184 18.3514 10.1304 18.3633C10.0764 18.374 10.0228 18.4034 9.98687 18.4454L8.02515 20.4285C8.00187 20.4556 7.98861 20.4912 7.98506 20.5268C7.9815 20.5617 7.98894 20.5937 8.0064 20.6244C8.02418 20.6551 8.05069 20.68 8.08269 20.6952C8.11534 20.7098 8.15188 20.7162 8.18679 20.7101L10.8817 19.995C10.936 19.9849 10.9917 19.96 11.0285 19.9187C11.065 19.8773 11.0883 19.8268 11.0928 19.7722C11.1055 19.6138 11.2283 19.489 11.3402 19.3536C11.4523 19.2174 11.571 19.1376 11.7404 19.0907C11.9101 19.0435 12.0908 19.0542 12.2567 19.1124C12.5548 19.2168 12.878 19.2766 13.1981 19.2462C13.5178 19.2168 13.8111 19.102 14.0842 18.9443L14.7567 18.5557V22.8949H15.5846V18.0791L16.3395 17.6424L17.0912 18.0762V22.8949H17.9223V18.5557L18.5915 18.9443C18.8651 19.1017 19.1609 19.2168 19.4806 19.2462C19.8007 19.2763 20.1239 19.2136 20.422 19.1088C20.5879 19.0506 20.7718 19.0403 20.9412 19.0878C21.1103 19.135 21.2235 19.2174 21.3356 19.3536C21.4472 19.489 21.5736 19.6109 21.5859 19.769C21.5904 19.8239 21.6133 19.8744 21.6502 19.9158C21.6867 19.9571 21.7397 19.9908 21.7937 20.0011L24.4919 20.7075C24.5268 20.714 24.5637 20.7101 24.596 20.6955C24.6282 20.6805 24.6549 20.6557 24.6723 20.6247C24.6896 20.5941 24.6971 20.5589 24.6936 20.5239C24.6901 20.4883 24.6768 20.4527 24.6539 20.4259L22.6889 18.449C22.653 18.407 22.602 18.3717 22.5483 18.3607C22.4943 18.3494 22.439 18.3549 22.3892 18.3788C22.246 18.447 22.0769 18.4018 21.9037 18.3727C21.73 18.3433 21.6014 18.2818 21.4759 18.159C21.3502 18.0355 21.2671 17.8732 21.2344 17.7009C21.1763 17.3899 21.0686 17.0792 20.883 16.8177C20.6975 16.5552 20.4476 16.3612 20.1741 16.2034L19.5019 15.8151L23.2634 13.6426L22.8477 12.9275L18.6737 15.3386L17.9217 14.9044V14.0306L22.096 11.6227L21.6806 10.9047L17.922 13.0743V12.2981C17.922 11.9822 17.8732 11.6699 17.7387 11.378C17.6042 11.0864 17.3886 10.8381 17.149 10.6325C17.0152 10.518 16.9179 10.3632 16.8739 10.1928C16.8303 10.0224 16.8429 9.88084 16.9043 9.71596C16.966 9.55141 17.009 9.38103 17.14 9.29116C17.1852 9.2598 17.2205 9.21518 17.2376 9.16313C17.2551 9.11076 17.256 9.04998 17.2376 8.99793L16.4982 6.30881C16.4859 6.27454 16.4636 6.24472 16.4342 6.22314C16.407 6.20321 16.3739 6.19266 16.3402 6.19307ZM16.3402 11.3909C16.5374 11.3909 16.732 11.4714 16.872 11.6111C17.0116 11.7507 17.0918 11.9457 17.0918 12.1429V13.5547L16.3402 13.9886L15.5853 13.5515V12.1426C15.5853 11.9454 15.6658 11.7507 15.8054 11.6108C15.9451 11.4711 16.143 11.3909 16.3402 11.3909ZM16.3402 14.9448L17.0918 15.3787V16.2529L16.3434 16.6864L15.5856 16.2496V15.3816L16.3402 14.9448ZM14.0025 16.2926L14.7573 16.7297V17.6036L13.5379 18.3064C13.3672 18.405 13.1574 18.4306 12.9663 18.3798C12.7756 18.3287 12.6065 18.1991 12.5079 18.0284C12.4093 17.858 12.3834 17.6476 12.4345 17.4571C12.4856 17.2661 12.612 17.0973 12.783 16.9987L14.0025 16.2926ZM18.675 16.2926L19.897 16.9987C20.068 17.0973 20.1973 17.2628 20.2484 17.4539C20.2998 17.6446 20.2675 17.8577 20.1689 18.0281C20.0703 18.1988 19.9041 18.3255 19.7134 18.3766C19.5229 18.4273 19.3128 18.4015 19.1421 18.3029L17.9227 17.6V16.7262L18.675 16.2926Z" fill="#020617"/>
</g>
<defs>
<clipPath id="clip0_12_2063">
<rect width="32" height="32" fill="white" transform="translate(0.5)"/>
</clipPath>
</defs>
</svg>
